# xmcd
#
# Track frame offsets: 
#        225
#        23801
#        36829
#        51035
#        60676
#        71124
#        83918
#        118229
#        128811
#        144747
#        157599
#        169646
#        188449
#        206624
#
# Disc length: 2994 seconds
#
# Revision: 3
# Processed by: cddbd v1.5.2PL0 Copyright (c) Steve Scherf et al.
# Submitted via: ExactAudioCopyFreeDBPlugin 1.0
#
DISCID=be0baf0e
DTITLE=Sean Costello - Cuttin' In
DYEAR=2000
DGENRE=Blues
TTITLE0=Talk To Your Daughter
TTITLE1=Cuttin' In
TTITLE2=Cold Cold Ground
TTITLE3=Mellow Chick Swing
TTITLE4=I Want To Be Loved
TTITLE5=Who's Been Cheatin' Who
TTITLE6=Double Trouble
TTITLE7=Jumpin' Salty
TTITLE8=Goombay Rock
TTITLE9=I Got Loaded
TTITLE10=Those Lonely Lonely Nights
TTITLE11=Close To You
TTITLE12=Rub-A-Dub
TTITLE13=Ah'w Baby
EXTD=
EXTT0=
EXTT1=
EXTT2=
EXTT3=
EXTT4=
EXTT5=
EXTT6=
EXTT7=
EXTT8=
EXTT9=
EXTT10=
EXTT11=
EXTT12=
EXTT13=
PLAYORDER=
